<svg xmlns="http://www.w3.org/2000/svg" xmlns:xlink="http://www.w3.org/1999/xlink" viewBox="0,0,256,256" width="35px" height="35px"><g fill="#ffffff" fill-rule="nonzero" stroke="none" stroke-width="1" stroke-linecap="butt" stroke-linejoin="miter" stroke-miterlimit="10" stroke-dasharray="" stroke-dashoffset="0" font-family="none" font-weight="none" font-size="none" text-anchor="none" style="mix-blend-mode: normal"><g transform="scale(5.12,5.12)"><path d="M21,3c-9.34545,0 -17,7.65455 -17,17c0,9.34546 7.65455,17 17,17c3.70129,0 7.12739,-1.21328 9.92773,-3.24414l13.1582,13.1582l2.82812,-2.82812l-13.03906,-13.03906c2.56182,-2.97856 4.125,-6.83667 4.125,-11.04687c0,-9.34545 -7.65454,-17 -17,-17zM21,5c8.25455,0 15,6.74546 15,15c0,8.25455 -6.74545,15 -15,15c-8.25454,0 -15,-6.74545 -15,-15c0,-8.25454 6.74546,-15 15,-15z"></path></g></g></svg>